# xmcd
#
# Track frame offsets:
#	150
#	12491
#	24171
#	35073
#	48224
#	58248
#	72100
#	85620
#	96546
#	106270
#	116418
#	126389
#	139127
#	151405
#	163194
#	171647
#
# Disc length: 2444 seconds
#
# Revision: 1
# Processed by: cddbd v1.5.2PL0 Copyright (c) Steve Scherf et al.
# Submitted via: EasyCDDAExtractor 12.0.5.1
#
DISCID=de098a10
DTITLE=Various Artist - Golden Age of Country - Waltz Across Texas Disc 2
DYEAR=2009
DGENRE=Country
TTITLE0=Hank Williams - Lovesick Blues
TTITLE1=Patsy Cline - Walkin' After Midnight
TTITLE2=Webb Pierce - There Stands the Glass
TTITLE3=Kitty Wells - Makin' Believe
TTITLE4=Johnny Cash - Ballad of a Teenage Queen
TTITLE5=Patti Page - The Tennessee Waltz
TTITLE6=Bobby Helms - My Special Angle
TTITLE7=George Jones - Tender Years
TTITLE8=Loretta Lynn - Don't Come Home A-Drinkin' (With Lovin' on Your Mind)
TTITLE9=Conway Twitty - It's Only Make Believe
TTITLE10=Wilburn Brothers - Trouble's Back in Town
TTITLE11=Bill Anderson - Still
TTITLE12=Roy Drusky - Three Hearts in a Tangle
TTITLE13=Jerry Lee Lewis - What's Made Milwaukee Famous (Has Made a Loser out 
TTITLE13=of Me)
TTITLE14=Roger Miller - Dang Me
TTITLE15=Osborne Brothers - Rocky Top
EXTD=
EXTT0=
EXTT1=
EXTT2=
EXTT3=
EXTT4=
EXTT5=
EXTT6=
EXTT7=
EXTT8=
EXTT9=
EXTT10=
EXTT11=
EXTT12=
EXTT13=
EXTT14=
EXTT15=
PLAYORDER=
